cover
 
http://i126.photobucket.com/albums/p102/tebugg/51fvhWMLDDL_SS500_.jpg
 
http://www.imdb.com/title/tt1730704/

Genre:Comedy
Language:English
IMDb:http://www.imdb.com/title/tt1730704/
Source:DVD

General
Complete name :MILF.2010.DvDRip.Ac3.Feel-Free
Format : AVI
Format/Info : Audio Video Interleave
File size : 773 MiB
Duration : 1h 28mn
Overall bit rate : 1 223 Kbps
Video #0
Codec ID : XVID
Codec ID/Hint : XviD
Duration : 1h 28mn
Bit rate : 766 Kbps
Width : 720 pixels
Height : 384 pixels
Display aspect ratio : 1.875
Frame rate : 23.976 fps
Resolution : 24 bits
Colorimetry : 4:2:0
Scan type : Progressive
Bits/(Pixel*Frame) : 0.116
Stream size : 484 MiB (63%)
Writing library : XviD 1.2.1 (UTC 2008-12-04)
Audio #1
ID : 1
Format : AC-3
Format/Info : Audio Coding 3
Codec ID : 2000
Duration : 1h 28mn
Bit rate mode : Constant
Bit rate : 448 Kbps
Channel(s) : 6 channels
Channel positions : Front: L C R, Surround: L R, LFE
Sampling rate : 48.0 KHz
Stream size : 283 MiB (37%)
Alignment : Split accross interleaves
Interleave, duration : 42 ms (1.00 video frame)
Interleave, preload duration : 500 ms

Plot:
A group of nerdy college guys who can't seem to connect with girls their own age discover the excitement of hooking up with sexy older women.

screens 
http://img43.imageshack.us/img43/7504/milf2010dvdripac3feelfr.jpg 
http://img59.imageshack.us/img59/7504/milf2010dvdripac3feelfr.jpg 
http://img837.imageshack.us/img837/7504/milf2010dvdripac3feelfr.jpg 
http://img225.imageshack.us/img225/7504/milf2010dvdripac3feelfr.jpg 
http://img816.imageshack.us/img816/7504/milf2010dvdripac3feelfr.jpg